<svg viewBox="0 0 100 100" fill="none" xmlns="http://www.w3.org/2000/svg">
  <defs>
    <linearGradient id="qieBg" x1="8" y1="5" x2="92" y2="95" gradientUnits="userSpaceOnUse">
      <stop offset="0%" stop-color="#F72585"/>
      <stop offset="45%" stop-color="#C026D3"/>
      <stop offset="100%" stop-color="#7C3AED"/>
    </linearGradient>
    <linearGradient id="qieHighlight" x1="0" y1="0" x2="0" y2="1">
      <stop offset="0%" stop-color="white" stop-opacity="0.35"/>
      <stop offset="100%" stop-color="white" stop-opacity="0"/>
    </linearGradient>
    <filter id="shadow" x="-20%" y="-20%" width="140%" height="140%">
      <feDropShadow dx="0" dy="4" stdDeviation="6" flood-color="#C026D3" flood-opacity="0.4"/>
    </filter>
  </defs>
  <!-- Main body -->
  <path d="M32 5 L68 5 L90 22 L94 56 L78 88 L50 96 L22 88 L6 56 L10 22 Z"
        fill="url(#qieBg)" filter="url(#shadow)"/>
  <!-- Top highlight facet -->
  <path d="M32 5 L68 5 L82 20 L50 28 L18 20 Z"
        fill="white" fill-opacity="0.18"/>
  <!-- Right facet shine -->
  <path d="M68 5 L90 22 L85 50 L62 35 L82 20 Z"
        fill="white" fill-opacity="0.07"/>
  <!-- Left subtle shadow -->
  <path d="M32 5 L18 20 L15 50 L38 35 L10 22 Z"
        fill="rgba(0,0,0,0.1)"/>
  <!-- Bottom shadow -->
  <path d="M22 88 L6 56 L20 62 L80 62 L94 56 L78 88 L50 96 Z"
        fill="rgba(0,0,0,0.15)"/>
  <!-- QIE text -->
  <text x="50" y="65" text-anchor="middle" fill="white"
        font-family="'Arial Black', 'Impact', 'Arial', sans-serif"
        font-weight="900" font-size="29" letter-spacing="-0.5">QIE</text>
</svg>
