<?xml version="1.0" encoding="UTF-8"?>
<svg version="1.1" xmlns="http://www.w3.org/2000/svg" width="1536" height="1024">

<path d="M0 0 C7.67830042 4.68628664 14.62335449 10.81709888 17.49609375 19.5234375 C17.71652344 20.18085938 17.93695312 20.83828125 18.1640625 21.515625 C20.90469879 30.96990052 19.59740485 40.64035886 15.5703125 49.578125 C11.36739326 56.7001627 5.65954274 63.08320839 0.49609375 69.5234375 C-0.23351562 70.43867188 -0.963125 71.35390625 -1.71484375 72.296875 C-3.64018126 74.70925441 -5.57097724 77.11713812 -7.50390625 79.5234375 C-8.94203053 81.31460311 -10.3795347 83.1062668 -11.81640625 84.8984375 C-12.45191406 85.68992187 -13.08742188 86.48140625 -13.7421875 87.296875 C-14.90722938 88.76932261 -16.03122758 90.27528737 -17.109375 91.8125 C-17.56957031 92.37710938 -18.02976562 92.94171875 -18.50390625 93.5234375 C-19.16390625 93.5234375 -19.82390625 93.5234375 -20.50390625 93.5234375 C-20.55998047 92.28980469 -20.55998047 92.28980469 -20.6171875 91.03125 C-21.04371501 83.78864563 -22.05126406 77.3568997 -24.50390625 70.5234375 C-25.16390625 70.5234375 -25.82390625 70.5234375 -26.50390625 70.5234375 C-25.90339276 66.85363281 -24.37415688 64.84516444 -22.00390625 62.0234375 C-18.81455937 58.1445021 -15.71340578 54.22213492 -12.69140625 50.2109375 C-11.59892578 48.76267578 -11.59892578 48.76267578 -10.484375 47.28515625 C-8.46590228 44.56906834 -8.46590228 44.56906834 -6.8671875 41.66796875 C-6.41730469 40.96027344 -5.96742188 40.25257813 -5.50390625 39.5234375 C-4.84390625 39.5234375 -4.18390625 39.5234375 -3.50390625 39.5234375 C-3.3952568 37.46211608 -3.31802304 35.39912429 -3.25390625 33.3359375 C-3.2075 32.18738281 -3.16109375 31.03882813 -3.11328125 29.85546875 C-3.58114726 25.86457166 -4.71838226 24.35446007 -7.50390625 21.5234375 C-12.33674805 18.26407908 -16.83491789 17.66076536 -22.50390625 18.5234375 C-31.73310166 22.56121049 -37.66810498 33.65995874 -43.34765625 41.58203125 C-45.78873279 44.91197805 -48.31925014 48.15935276 -50.87890625 51.3984375 C-51.34014893 51.98262451 -51.8013916 52.56681152 -52.27661133 53.16870117 C-53.21378315 54.35537236 -54.15103933 55.54197693 -55.08837891 56.72851562 C-57.42609967 59.69280038 -59.75162578 62.66621022 -62.06640625 65.6484375 C-63.27490234 67.19917969 -63.27490234 67.19917969 -64.5078125 68.78125 C-67.69453631 73.15909759 -69.17866188 76.01293318 -68.50390625 81.5234375 C-65.59157849 86.84160123 -60.91370894 88.45430356 -55.50390625 90.5234375 C-57.01357001 95.0102594 -59.47275588 98.54611964 -62.31640625 102.2734375 C-62.74244141 102.86253906 -63.16847656 103.45164062 -63.60742188 104.05859375 C-65.56628569 106.63682601 -67.05206152 108.34160589 -70.0859375 109.5625 C-74.62981951 109.48909318 -77.31871441 106.5152211 -80.50390625 103.5234375 C-88.96782582 94.52105784 -91.1495699 86.43746317 -90.84375 74.16796875 C-89.90930974 64.14690247 -84.48896441 57.30919498 -78.50390625 49.5234375 C-77.84390625 48.5334375 -77.18390625 47.5434375 -76.50390625 46.5234375 C-75.84390625 46.5234375 -75.18390625 46.5234375 -74.50390625 46.5234375 C-74.27058594 45.99105469 -74.03726563 45.45867187 -73.796875 44.91015625 C-72.11423897 41.80414231 -69.99076058 39.10528455 -67.81640625 36.3359375 C-67.14593262 35.47427979 -67.14593262 35.47427979 -66.46191406 34.59521484 C-65.56205317 33.43921982 -64.66086868 32.2842538 -63.75830078 31.13037109 C-62.6659847 29.73106699 -61.58223449 28.32508455 -60.5 26.91796875 C-57.44235964 22.94372031 -54.330792 19.04329804 -51.0234375 15.2734375 C-49.955535 14.04356522 -48.91325572 12.79120246 -47.890625 11.5234375 C-36.33353304 -2.50448101 -17.04196682 -7.49740194 0 0 Z " fill="#15A6FD" transform="translate(892.50390625,333.4765625)"/>
<path d="M0 0 C6.55815755 5.13434703 11.55664462 11.94105678 16.57421875 18.52734375 C18.56055988 21.09967706 20.61728994 23.60409452 22.6875 26.109375 C27.73493534 32.24461969 32.56239979 38.53969748 37.375 44.859375 C33.84611601 46.03566966 32.04226185 45.28775959 28.546875 44.34375 C24.45005607 43.43007096 20.30878013 43.42879219 16.22485352 44.33813477 C13.81653939 44.83981172 11.82958837 45.08761568 9.375 44.859375 C6.68628952 43.03582308 5.06553353 40.64628495 3.25 37.984375 C2.74065918 37.2948877 2.23131836 36.60540039 1.70654297 35.89501953 C0.23671277 33.90048381 -1.19486062 31.88244808 -2.625 29.859375 C-9.16933838 20.59867529 -9.16933838 20.59867529 -18.625 14.859375 C-23.30841066 14.31520729 -26.75767915 14.44936878 -31.0625 16.484375 C-34.65002156 19.80939499 -35.32494876 22.19334591 -35.86328125 26.9765625 C-35.92034174 38.57886164 -25.14937642 48.45055985 -17.95263672 56.73779297 C-13.46308632 61.93497828 -9.35331529 67.40377376 -5.3034668 72.94848633 C0.99105018 81.47533449 0.99105018 81.47533449 10.3125 85.484375 C14.18837402 85.19894242 17.12715887 83.72964499 20.41796875 81.734375 C23.00033907 80.57978228 24.57002044 80.434768 27.375 80.859375 C29.76171875 82.65234375 29.76171875 82.65234375 32.0625 85.046875 C32.82949219 85.82417969 33.59648438 86.60148437 34.38671875 87.40234375 C36.35794191 89.83829535 37.39310128 91.90317725 38.375 94.859375 C37.715 94.859375 37.055 94.859375 36.375 94.859375 C35.88 96.344375 35.88 96.344375 35.375 97.859375 C32.9765625 99.6484375 32.9765625 99.6484375 30 101.484375 C29.02289062 102.09539062 28.04578125 102.70640625 27.0390625 103.3359375 C19.85389781 107.44475602 10.40785527 106.79412543 2.375 105.859375 C-2.13429138 104.47448105 -5.75881676 102.53835406 -9.625 99.859375 C-10.26179687 99.43785156 -10.89859375 99.01632812 -11.5546875 98.58203125 C-16.57634447 94.77529129 -20.14787098 89.48730849 -23.890625 84.484375 C-26.70130573 80.73136155 -29.62270892 77.07411303 -32.5625 73.421875 C-33.06378418 72.7942627 -33.56506836 72.16665039 -34.08154297 71.52001953 C-36.55728197 68.42077286 -39.05065227 65.33982765 -41.5859375 62.2890625 C-52.56459049 48.93328115 -58.92275076 36.62710966 -57.625 18.859375 C-55.95692955 10.07946367 -51.55301714 4.35598364 -44.625 -1.140625 C-30.9145564 -10.19517687 -13.52585291 -8.75712272 0 0 Z " fill="#10A9FD" transform="translate(696.625,337.140625)"/>
<path d="M0 0 C1.09957031 0.34804688 2.19914063 0.69609375 3.33203125 1.0546875 C6.779681 1.92626306 9.6053614 2.00218209 13.13671875 1.6328125 C27.26975855 0.22481694 27.26975855 0.22481694 32.15380859 3.40039062 C36.02807479 7.0974159 38.91185326 11.44861399 41.72167969 15.98242188 C43.44579099 18.70359372 45.44257228 21.15001315 47.5 23.625 C48.10585938 24.39972656 48.71171875 25.17445313 49.3359375 25.97265625 C50.93253622 27.99425051 50.93253622 27.99425051 52.6640625 29.62109375 C54.125 31.0625 54.125 31.0625 56 34 C55.81192666 37.94282327 54.75970426 41.48059147 53 45 C52.43714931 50.8536472 53.57147174 53.33371492 57 58 C66.43546118 69.27797643 75.71579278 79.22162335 91 80.6875 C92.66592395 80.80293767 94.33244907 80.91110482 96 81 C94.62253597 84.99678683 92.77229751 87.77044617 90.0625 91 C87.38164689 94.20700185 85.07055271 97.36517392 83 101 C78.84617311 99.44110459 76.53069647 96.40287637 73.8125 93.0625 C73.33055176 92.48129395 72.84860352 91.90008789 72.35205078 91.30126953 C70.89434972 89.53982067 69.44634527 87.77077799 68 86 C67.20722656 85.03707031 66.41445313 84.07414063 65.59765625 83.08203125 C64.1185036 81.28053251 62.64322249 79.47584785 61.171875 77.66796875 C59.72905239 75.89558054 58.28115966 74.12730714 56.828125 72.36328125 C52.26429845 66.82033588 47.79687749 61.21180998 43.37646484 55.5546875 C39.17138203 50.18711735 34.87170694 44.89929931 30.56005859 39.6171875 C27.78656641 36.21490419 25.04358015 32.79825301 22.375 29.3125 C19.52856245 25.60929891 16.5288249 22.05378734 13.5 18.5 C1.44655704 4.33967112 1.44655704 4.33967112 0 0 Z " fill="#3483FA" transform="translate(694,448)"/>
<path d="M0 0 C4.28096109 0.85332486 6.80281673 3.09322287 9.9375 6 C10.47093018 6.49185791 11.00436035 6.98371582 11.55395508 7.49047852 C17.65548939 13.31036022 21.58425169 19.58845648 22.23828125 28.1015625 C22.52598663 41.75999707 18.30920379 49.44798674 10 60 C9.53996582 60.58475098 9.07993164 61.16950195 8.60595703 61.77197266 C5.584777 65.60212982 2.52986182 69.40368194 -0.54248047 73.19287109 C-1.91671641 74.8967395 -3.27520947 76.61182689 -4.62890625 78.33203125 C-5.80259766 79.80736328 -5.80259766 79.80736328 -7 81.3125 C-7.680625 82.17488281 -8.36125 83.03726563 -9.0625 83.92578125 C-10.96084242 85.95807928 -12.44360319 86.96717004 -15 88 C-15.4640625 86.7315625 -15.4640625 86.7315625 -15.9375 85.4375 C-18.25209062 80.68351241 -22.79346478 77.98073146 -27 75 C-26.38722388 72.03824877 -25.74627478 70.61941217 -24 68 C-23.34 68 -22.68 68 -22 68 C-21.79375 67.319375 -21.5875 66.63875 -21.375 65.9375 C-19.84704763 62.67323811 -17.96436112 60.49236921 -15.578125 57.828125 C-14.06494729 56.07523597 -12.74777058 54.2823559 -11.4375 52.375 C-9.26290235 49.23626035 -6.69993558 46.69993558 -4 44 C-3.67 43.01 -3.34 42.02 -3 41 C-2.34 41 -1.68 41 -1 41 C0.49604086 36.32487231 0.77500448 31.79474722 -1.1875 27.25 C-4.11437947 23.61663239 -7.43830831 21.84475772 -12 21 C-11.5853677 15.6097801 -8.48058685 11.93870373 -5.4375 7.6875 C-4.91736328 6.94693359 -4.39722656 6.20636719 -3.86132812 5.44335938 C-2.58156882 3.62351816 -1.29437782 1.80945816 0 0 Z " fill="#358CFB" transform="translate(842,391)"/>
<path d="M0 0 C7.61040535 5.12238822 12.83909895 11.24239334 18.37890625 18.5 C20.25382973 20.94426861 22.18592821 23.30700592 24.21484375 25.625 C24.91710083 26.43203369 24.91710083 26.43203369 25.63354492 27.25537109 C26.92963055 28.73231127 28.23792055 30.19851534 29.546875 31.6640625 C31.25 34.1875 31.25 34.1875 31.2578125 36.2109375 C29.92186076 38.8310599 28.25637679 40.92709125 26.375 43.1875 C23.93184739 46.14452604 21.52424381 49.09796123 19.25 52.1875 C14.9644731 50.607022 12.52080133 47.34409243 9.6875 43.9375 C9.16663818 43.32213379 8.64577637 42.70676758 8.10913086 42.07275391 C3.92771482 37.09647107 -0.09986314 32.00120101 -4.00805664 26.80761719 C-7.58648091 22.12999239 -10.46599529 18.5359075 -16.4375 17.625 C-21.04416654 17.81730866 -24.54264356 19.89368706 -28.453125 22.19140625 C-30.75 23.1875 -30.75 23.1875 -32.828125 23.04296875 C-36.56426861 21.37992922 -39.02722682 18.15607909 -41.75 15.1875 C-42.575 14.300625 -43.4 13.41375 -44.25 12.5 C-45.75 10.1875 -45.75 10.1875 -45.59765625 8.265625 C-43.64349586 3.47478017 -38.02542073 0.28940829 -33.515625 -1.89453125 C-22.13123997 -6.23857291 -10.90270808 -5.84248258 0 0 Z " fill="#1EA1FD" transform="translate(738.75,392.8125)"/>
<path d="M0 0 C3.42280517 1.46582015 5.56480483 3.38062255 8.125 6.0625 C10.77905 8.91571933 10.77905 8.91571933 14 11 C12.45555924 14.48509931 10.37524647 17.14322337 7.9375 20.0625 C7.12539063 21.04089844 6.31328125 22.01929688 5.4765625 23.02734375 C4.65929687 24.00832031 3.84203125 24.98929687 3 26 C1.60232464 27.7068266 0.20648078 29.41515467 -1.1875 31.125 C-1.91582031 32.01058594 -2.64414062 32.89617187 -3.39453125 33.80859375 C-5.47617721 36.34614774 -7.52618573 38.90791518 -9.57421875 41.47265625 C-10.84100889 43.04438122 -12.10793606 44.61599575 -13.375 46.1875 C-13.98239014 46.95529785 -14.58978027 47.7230957 -15.21557617 48.51416016 C-15.79154541 49.22491699 -16.36751465 49.93567383 -16.9609375 50.66796875 C-17.73123291 51.63126099 -17.73123291 51.63126099 -18.51708984 52.61401367 C-20 54 -20 54 -23 54 C-31.04047627 49.95415526 -37.56962777 43.1699242 -44 37 C-44.94617188 36.11828125 -45.89234375 35.2365625 -46.8671875 34.328125 C-47.92292969 33.17570312 -47.92292969 33.17570312 -49 32 C-48.86863344 29.175619 -48.25262369 27.50524739 -47 25 C-46.34 25 -45.68 25 -45 25 C-44.67 23.68 -44.34 22.36 -44 21 C-43.34 21 -42.68 21 -42 21 C-41.67 19.68 -41.34 18.36 -41 17 C-37.83145253 17.57691478 -36.21773541 18.41646887 -33.984375 20.72265625 C-33.45585938 21.26083984 -32.92734375 21.79902344 -32.3828125 22.35351562 C-31.84398437 22.91748047 -31.30515625 23.48144531 -30.75 24.0625 C-30.19570313 24.63033203 -29.64140625 25.19816406 -29.0703125 25.78320312 C-27.70665786 27.18212469 -26.35239583 28.59019114 -25 30 C-21.19799934 28.73266645 -20.59382318 27.24882999 -18.4375 23.9375 C-17.34200476 22.25774062 -16.20650444 20.60188902 -15 19 C-14.34 19 -13.68 19 -13 19 C-12.9071875 18.1646875 -12.9071875 18.1646875 -12.8125 17.3125 C-11.66851791 14.05655096 -9.45123064 12.392868 -7 10 C-5.97695052 8.34738161 -4.97383946 6.68208635 -4 5 C-3.01904252 3.98131338 -2.02297922 2.97648017 -1 2 C-0.67 1.34 -0.34 0.68 0 0 Z " fill="#23A0FD" transform="translate(802,466)"/>
<path d="M0 0 C0.99 0 1.98 0 3 0 C3.09796875 1.05058594 3.1959375 2.10117187 3.296875 3.18359375 C4.34707955 13.60751539 4.34707955 13.60751539 8.390625 23.203125 C9 25 9 25 8.3671875 26.9140625 C6.69129624 29.47099374 4.83736158 31.7797386 2.875 34.125 C-0.14671474 37.76072718 -3.13407638 41.41373046 -6.0625 45.125 C-9.87099353 49.90669007 -13.89089715 54.47561548 -18 59 C-21.89933913 57.70022029 -23.03154527 55.76893194 -25.5625 52.5625 C-28.63854744 48.65375212 -28.63854744 48.65375212 -32 45 C-31.80608859 40.30572795 -29.48471865 37.77420691 -26.5 34.3125 C-23.43167456 30.86851703 -23.43167456 30.86851703 -21 27 C-20.34 27 -19.68 27 -19 27 C-18.731875 26.443125 -18.46375 25.88625 -18.1875 25.3125 C-16.89100504 22.78774666 -15.57523677 20.36285516 -14 18 C-13.34 18 -12.68 18 -12 18 C-11.34 16.35 -10.68 14.7 -10 13 C-9.34 13 -8.68 13 -8 13 C-7.9071875 12.1646875 -7.9071875 12.1646875 -7.8125 11.3125 C-6.67045135 8.06205385 -4.44372943 6.38412628 -2 4 C-0.70480005 1.83379456 -0.70480005 1.83379456 0 0 Z " fill="#3090FC" transform="translate(792,410)"/>
<path d="M0 0 C5.0747918 -0.78147935 9.28757821 -1.22462548 13.60546875 1.86328125 C15.26316339 3.47353789 16.9074902 5.09765578 18.5390625 6.734375 C25.13220336 12.80425071 33.35791011 13.67140343 42 14 C40.62253597 17.99678683 38.77229751 20.77044617 36.0625 24 C33.38164689 27.20700185 31.07055271 30.36517392 29 34 C24.84616042 32.44109983 22.53073834 29.40288727 19.8125 26.0625 C19.33345215 25.48491943 18.8544043 24.90733887 18.36083984 24.31225586 C16.90000674 22.5473043 15.44908983 20.77459917 14 19 C13.15259585 17.96854283 12.30495384 16.93728102 11.45703125 15.90625 C9.95009608 14.06864731 8.4471993 12.22772212 6.94921875 10.3828125 C5.30631127 8.37444865 3.63177717 6.40229201 1.9375 4.4375 C0 2 0 2 0 0 Z " fill="#4A66F6" transform="translate(748,515)"/>
<path d="M0 0 C0.33 0 0.66 0 1 0 C1.04125 0.886875 1.0825 1.77375 1.125 2.6875 C2.33037176 7.2506931 4.23929433 8.23703257 8 11 C8.66 11.66 9.32 12.32 10 13 C8.02 13 6.04 13 4 13 C4 13.66 4 14.32 4 15 C3.34 15 2.68 15 2 15 C1.67 16.98 1.34 18.96 1 21 C0.67 21 0.34 21 0 21 C-0.66 18.36 -1.32 15.72 -2 13 C-7.61 13 -13.22 13 -19 13 C-19 12.67 -19 12.34 -19 12 C-16.36 12 -13.72 12 -11 12 C-11 11.34 -11 10.68 -11 10 C-7.49223216 8.39644899 -4.85645121 7.77963136 -1 8 C-1.0309375 6.2984375 -1.0309375 6.2984375 -1.0625 4.5625 C-1 1 -1 1 0 0 Z " fill="#8FC2F7" transform="translate(814,510)"/>
<path d="M0 0 C0.99 0.33 1.98 0.66 3 1 C2.28714844 1.83402344 1.57429687 2.66804688 0.83984375 3.52734375 C-8.21796902 14.10552 -8.21796902 14.10552 -16.5625 25.24609375 C-17.036875 25.82488281 -17.51125 26.40367187 -18 27 C-18.66 27 -19.32 27 -20 27 C-20.06058594 26.10796875 -20.12117187 25.2159375 -20.18359375 24.296875 C-20.26738281 23.12640625 -20.35117187 21.9559375 -20.4375 20.75 C-20.51871094 19.58984375 -20.59992187 18.4296875 -20.68359375 17.234375 C-20.93247787 14.69022624 -21.28114942 12.44046752 -22 10 C-21.01 10.33 -20.02 10.66 -19 11 C-18.67 13.64 -18.34 16.28 -18 19 C-17.01 18.67 -16.02 18.34 -15 18 C-14.67 17.34 -14.34 16.68 -14 16 C-13.34 16 -12.68 16 -12 16 C-11.67 15.01 -11.34 14.02 -11 13 C-10.34 13 -9.68 13 -9 13 C-8.87625 12.401875 -8.7525 11.80375 -8.625 11.1875 C-8 9 -8 9 -6 6 C-5.34 6 -4.68 6 -4 6 C-3.896875 5.38125 -3.79375 4.7625 -3.6875 4.125 C-3 2 -3 2 0 0 Z " fill="#54A7FA" transform="translate(892,400)"/>
<path d="M0 0 C2.97 0.495 2.97 0.495 6 1 C6 5.98628453 3.98468046 8.30421481 1.125 12.125 C0.66480469 12.75792969 0.20460938 13.39085937 -0.26953125 14.04296875 C-2.07089782 16.50222572 -3.84158232 18.84158232 -6 21 C-10.68248667 21.22841398 -13.20564818 19.2817307 -16.625 16.375 C-20.36739693 12.87873036 -22.79495539 9.60183223 -25 5 C-24.01 5 -23.02 5 -22 5 C-21.05598958 6.79036458 -20.11197917 8.58072917 -19.16796875 10.37109375 C-18.00980201 12.32267987 -18.00980201 12.32267987 -15 13 C-14.67 13.99 -14.34 14.98 -14 16 C-13.01 16.33 -12.02 16.66 -11 17 C-11 17.66 -11 18.32 -11 19 C-9.04105639 18.88693303 -9.04105639 18.88693303 -7 18 C-6.31867549 16.33927151 -5.65257873 14.672233 -5 13 C-2.9375 11.8125 -2.9375 11.8125 -1 11 C-0.67 10.34 -0.34 9.68 0 9 C0.66 9 1.32 9 2 9 C2.23428313 4.2102679 2.23428313 4.2102679 0 0 Z " fill="#5C9AF8" transform="translate(830,422)"/>
<path d="M0 0 C0.99 0.33 1.98 0.66 3 1 C1.98377902 2.32108728 0.96753127 3.64215397 -0.04882812 4.96313477 C-0.94119476 6.12344138 -1.83311391 7.28409227 -2.72460938 8.44506836 C-5.07957835 11.51057408 -7.44151132 14.57012771 -9.8203125 17.6171875 C-10.49441162 18.48404175 -10.49441162 18.48404175 -11.18212891 19.3684082 C-12.0436382 20.47585781 -12.90779056 21.5812577 -13.77490234 22.68432617 C-17.49841961 27.48225711 -19.17845564 30.97534135 -20 37 C-20.33 37 -20.66 37 -21 37 C-21.89388075 32.93690569 -22.21232802 30.57328566 -20.75 26.625 C-19 24 -19 24 -16 23 C-15.67 22.175 -15.34 21.35 -15 20.5 C-14.67 19.675 -14.34 18.85 -14 18 C-13.01 17.67 -12.02 17.34 -11 17 C-11 15.68 -11 14.36 -11 13 C-9.125 10.75 -9.125 10.75 -7 9 C-6.34 9 -5.68 9 -5 9 C-5 8.01 -5 7.02 -5 6 C-4.34 6 -3.68 6 -3 6 C-2.87625 5.38125 -2.7525 4.7625 -2.625 4.125 C-2 2 -2 2 0 0 Z " fill="#44B5FA" transform="translate(843,378)"/>
<path d="M0 0 C0 3 0 3 -1 5 C-1.66 5 -2.32 5 -3 5 C-3.08894531 5.74507813 -3.17789063 6.49015625 -3.26953125 7.2578125 C-4.13409462 10.50339264 -5.23594507 11.62423909 -7.6875 13.875 C-10.36738094 16.42956277 -12.98421563 18.97516865 -15.4375 21.75 C-15.91058594 22.28109375 -16.38367188 22.8121875 -16.87109375 23.359375 C-18.14719649 25.21391878 -18.58428033 26.80194196 -19 29 C-19.66 28.67 -20.32 28.34 -21 28 C-20.38722388 25.03824877 -19.74627478 23.61941217 -18 21 C-17.34 21 -16.68 21 -16 21 C-15.79375 20.319375 -15.5875 19.63875 -15.375 18.9375 C-13.84889535 15.67718553 -11.97145544 13.49882351 -9.5859375 10.83984375 C-8.02275765 9.02640111 -6.6661554 7.1605553 -5.3125 5.1875 C-3 2 -3 2 0 0 Z " fill="#6297F7" transform="translate(836,438)"/>
<path d="M0 0 C4.44926052 0.41314562 6.84100104 3.50461527 9.75 6.5625 C10.25660156 7.08263672 10.76320313 7.60277344 11.28515625 8.13867188 C12.53034405 9.41910084 13.76611502 10.70867554 15 12 C12 14 12 14 10 14 C9.34 12.02 8.68 10.04 8 8 C7.34 8 6.68 8 6 8 C5.34 7.01 4.68 6.02 4 5 C0.1692803 5.54724567 -1.36924456 7.28155271 -4 10 C-4.66 10 -5.32 10 -6 10 C-6 9.34 -6 8.68 -6 8 C-5.34 8 -4.68 8 -4 8 C-3.67 6.68 -3.34 5.36 -3 4 C-2.34 4 -1.68 4 -1 4 C-0.67 2.68 -0.34 1.36 0 0 Z " fill="#52B6F7" transform="translate(761,483)"/>
<path d="M0 0 C0.99 0.33 1.98 0.66 3 1 C-11.49649369 19.73352034 -11.49649369 19.73352034 -16 24 C-16.66 24 -17.32 24 -18 24 C-18.33 22.68 -18.66 21.36 -19 20 C-17.02 19.67 -15.04 19.34 -13 19 C-12.67 17.35 -12.34 15.7 -12 14 C-11.34 14 -10.68 14 -10 14 C-10 13.34 -10 12.68 -10 12 C-9.01 12 -8.02 12 -7 12 C-6.87625 11.4225 -6.7525 10.845 -6.625 10.25 C-5.99351176 7.97664233 -5.11141809 6.0746471 -4 4 C-3.34 4 -2.68 4 -2 4 C-1.34 2.68 -0.68 1.36 0 0 Z " fill="#688FF5" transform="translate(845,455)"/>
<path d="M0 0 C0.66 0.33 1.32 0.66 2 1 C2 1.66 2 2.32 2 3 C1.34 3 0.68 3 0 3 C-0.33 3.99 -0.66 4.98 -1 6 C-3.3984375 7.7890625 -3.3984375 7.7890625 -6.375 9.625 C-7.84066406 10.54152344 -7.84066406 10.54152344 -9.3359375 11.4765625 C-14.40005265 14.37246413 -18.70956026 14.18324667 -24.375 14.1875 C-25.22578125 14.19974609 -26.0765625 14.21199219 -26.953125 14.22460938 C-31.41618112 14.23503708 -34.94546621 14.11069352 -39 12 C-35.65904578 10.88634859 -35.23088672 11.17556684 -32 12 C-23.92213933 12.48392714 -16.27996434 12.90961048 -9 9 C-6.18643108 6.43802877 -6.18643108 6.43802877 -4 4 C-3.34 4 -2.68 4 -2 4 C-1.34 2.68 -0.68 1.36 0 0 Z " fill="#509FF7" transform="translate(733,429)"/>
<path d="M0 0 C3.16115776 1.36983503 3.9927092 1.9890638 6 5 C5.29488281 4.8659375 4.58976563 4.731875 3.86328125 4.59375 C-0.55037678 5.2199716 -2.1720537 8.10866577 -4.8125 11.5 C-5.56563477 12.43005859 -5.56563477 12.43005859 -6.33398438 13.37890625 C-7.56943315 14.9085095 -8.78654152 16.45289357 -10 18 C-10.99 17.67 -11.98 17.34 -13 17 C-5 7 -5 7 -2.796875 4.29296875 C-0.98726055 2.14092925 -0.98726055 2.14092925 0 0 Z " fill="#47B8FA" transform="translate(802,466)"/>
<path d="M0 0 C0.99 0.33 1.98 0.66 3 1 C0.94229435 3.5663824 -1.12201884 6.12737287 -3.1875 8.6875 C-3.76564453 9.40873047 -4.34378906 10.12996094 -4.93945312 10.87304688 C-8.11752276 14.80523472 -11.34250284 18.50781344 -15 22 C-15 20.35 -15 18.7 -15 17 C-13.68 16.67 -12.36 16.34 -11 16 C-10.896875 15.360625 -10.79375 14.72125 -10.6875 14.0625 C-10.460625 13.381875 -10.23375 12.70125 -10 12 C-9.01 11.67 -8.02 11.34 -7 11 C-6.32843384 9.06381575 -6.32843384 9.06381575 -6 7 C-5.67 6.34 -5.34 5.68 -5 5 C-4.01 5 -3.02 5 -2 5 C-2 4.01 -2 3.02 -2 2 C-1.34 2 -0.68 2 0 2 C0 1.34 0 0.68 0 0 Z " fill="#609DF7" transform="translate(792,443)"/>
<path d="M0 0 C1.65 1.65 3.3 3.3 5 5 C1.47111601 6.17629466 -0.33273815 5.42838459 -3.828125 4.484375 C-10.10772404 3.08388888 -16.69890453 4.18319133 -23 5 C-23.66 4.01 -24.32 3.02 -25 2 C-24.27820557 1.97494385 -23.55641113 1.9498877 -22.81274414 1.92407227 C-19.562465 1.80848698 -16.31250312 1.68559226 -13.0625 1.5625 C-11.92619141 1.52318359 -10.78988281 1.48386719 -9.61914062 1.44335938 C-7.99975586 1.38051758 -7.99975586 1.38051758 -6.34765625 1.31640625 C-5.34742432 1.27974854 -4.34719238 1.24309082 -3.31665039 1.20532227 C-1.03930812 1.25328159 -1.03930812 1.25328159 0 0 Z " fill="#1AB8FD" transform="translate(729,377)"/>
<path d="M0 0 C1.32 0 2.64 0 4 0 C4 0.99 4 1.98 4 3 C4.99 3 5.98 3 7 3 C7 3.66 7 4.32 7 5 C8.14339844 5.12117187 9.28679688 5.24234375 10.46484375 5.3671875 C11.95578417 5.53597321 13.44666673 5.70527047 14.9375 5.875 C15.69224609 5.95363281 16.44699219 6.03226563 17.22460938 6.11328125 C19.15919299 6.33883808 21.08176019 6.66258974 23 7 C23.33 7.66 23.66 8.32 24 9 C21.60347472 9.08139142 19.20974564 9.14067009 16.8125 9.1875 C16.13896484 9.21263672 15.46542969 9.23777344 14.77148438 9.26367188 C8.90833704 9.34947403 5.95872839 7.74697397 1.6875 3.9375 C0 2 0 2 0 0 Z " fill="#D8E4F9" transform="translate(815,514)"/>
<path d="M0 0 C2.45862401 -0.05383848 4.9160755 -0.09359038 7.375 -0.125 C8.42300781 -0.15013672 8.42300781 -0.15013672 9.4921875 -0.17578125 C11.32897486 -0.19344267 13.16601963 -0.10303261 15 0 C15.66 0.66 16.32 1.32 17 2 C15.02 2 13.04 2 11 2 C11 2.66 11 3.32 11 4 C10.34 4 9.68 4 9 4 C8.67 5.98 8.34 7.96 8 10 C7.67 10 7.34 10 7 10 C6.34 7.36 5.68 4.72 5 2 C3.35 2 1.7 2 0 2 C0 1.34 0 0.68 0 0 Z " fill="#6EADF6" transform="translate(807,521)"/>
<path d="M0 0 C3.87291567 5.80937351 3.69006776 12.4286753 2.3984375 19.11328125 C0.3816719 27.6183281 0.3816719 27.6183281 -2 30 C-2.33 28.68 -2.66 27.36 -3 26 C-2.34 26 -1.68 26 -1 26 C-1.33 24.68 -1.66 23.36 -2 22 C-1.01 21.67 -0.02 21.34 1 21 C1.02708567 19.39592672 1.04643483 17.7917215 1.0625 16.1875 C1.07410156 15.29417969 1.08570313 14.40085937 1.09765625 13.48046875 C1.11009967 10.86586209 1.11009967 10.86586209 0 8 C-0.12781786 5.32605036 -0.04391871 2.67904143 0 0 Z " fill="#5DBEF9" transform="translate(909,353)"/>
<path d="M0 0 C0.66 0.33 1.32 0.66 2 1 C1.41035253 4.85951071 -0.40926545 7.03750574 -2.875 10 C-5.31815261 12.95702604 -7.72575619 15.91046123 -10 19 C-10.99 18.67 -11.98 18.34 -13 18 C-11.625 16 -11.625 16 -10 14 C-9.34 14 -8.68 14 -8 14 C-8 13.01 -8 12.02 -8 11 C-7.34 11 -6.68 11 -6 11 C-5.34 9.68 -4.68 8.36 -4 7 C-3.34 7 -2.68 7 -2 7 C-1.34 4.69 -0.68 2.38 0 0 Z " fill="#5BA0F7" transform="translate(768,426)"/>
<path d="M0 0 C0.99 0.33 1.98 0.66 3 1 C3.33 3.64 3.66 6.28 4 9 C4.66 9 5.32 9 6 9 C5.67 11.31 5.34 13.62 5 16 C4.01 16.33 3.02 16.66 2 17 C1.93941406 16.10796875 1.87882813 15.2159375 1.81640625 14.296875 C1.73261719 13.12640625 1.64882813 11.9559375 1.5625 10.75 C1.48128906 9.58984375 1.40007813 8.4296875 1.31640625 7.234375 C1.06752213 4.69022624 0.71885058 2.44046752 0 0 Z " fill="#499BF9" transform="translate(870,410)"/>
<path d="M0 0 C4 1 4 1 6 4 C4.02 4.33 2.04 4.66 0 5 C-0.33 5.99 -0.66 6.98 -1 8 C-3.375 10.6875 -3.375 10.6875 -6 13 C-6.99 13 -7.98 13 -9 13 C-6.03 8.71 -3.06 4.42 0 0 Z " fill="#53BBFB" transform="translate(842,391)"/>
<path d="M0 0 C0.598125 0.639375 1.19625 1.27875 1.8125 1.9375 C3.90810337 4.20310389 3.90810337 4.20310389 7 5 C9.6875 7.4375 9.6875 7.4375 12 10 C12 10.66 12 11.32 12 12 C13.65 12.33 15.3 12.66 17 13 C17 13.99 17 14.98 17 16 C13.61769342 14.47326439 10.89740051 12.49747022 8 10.1875 C7.154375 9.52105469 6.30875 8.85460937 5.4375 8.16796875 C2.95829257 5.96290445 0.99410368 3.64495697 -1 1 C-0.67 0.67 -0.34 0.34 0 0 Z " fill="#4798F9" transform="translate(760,502)"/>
<path d="M0 0 C0.33 0.66 0.66 1.32 1 2 C-0.62034283 4.14949538 -2.24595794 6.2946141 -3.875 8.4375 C-4.33519531 9.04916016 -4.79539062 9.66082031 -5.26953125 10.29101562 C-8.7734375 14.88671875 -8.7734375 14.88671875 -11 16 C-10.42415568 13.61435923 -9.77772405 11.33317216 -9 9 C-8.34 9 -7.68 9 -7 9 C-6.731875 8.360625 -6.46375 7.72125 -6.1875 7.0625 C-5 5 -5 5 -2 4 C-2 3.01 -2 2.02 -2 1 C-1.34 0.67 -0.68 0.34 0 0 Z " fill="#52AFF9" transform="translate(906,383)"/>
<path d="M0 0 C4.29 0.33 8.58 0.66 13 1 C11.22157001 5.44607497 10.35585467 6.9797308 7 10 C7.33 7.36 7.66 4.72 8 2 C5.69 2.33 3.38 2.66 1 3 C0.67 2.01 0.34 1.02 0 0 Z " fill="#637FF2" transform="translate(777,528)"/>
<path d="M0 0 C1.32 0.66 2.64 1.32 4 2 C2.43632643 5.52238047 0.30504111 8.27123994 -2.125 11.25 C-2.84945312 12.14203125 -3.57390625 13.0340625 -4.3203125 13.953125 C-4.87460937 14.62859375 -5.42890625 15.3040625 -6 16 C-6.33 14.68 -6.66 13.36 -7 12 C-6.34 12 -5.68 12 -5 12 C-5 11.34 -5 10.68 -5 10 C-4.34 10 -3.68 10 -3 10 C-3 9.34 -3 8.68 -3 8 C-2.34 8 -1.68 8 -1 8 C-1 7.01 -1 6.02 -1 5 C-0.34 5 0.32 5 1 5 C0.67 3.35 0.34 1.7 0 0 Z " fill="#6CB7F7" transform="translate(812,475)"/>
<path d="M0 0 C1 3 1 3 -0.1875 6 C-1.93988761 8.90050363 -3.00705579 10.45818026 -6 12 C-8.25 11.6875 -8.25 11.6875 -10 11 C-9 9 -9 9 -6 8 C-4.33410763 6.14188287 -4.33410763 6.14188287 -2.8125 3.9375 C-2.01779297 2.83728516 -2.01779297 2.83728516 -1.20703125 1.71484375 C-0.80871094 1.14894531 -0.41039062 0.58304687 0 0 Z " fill="#4AB0F6" transform="translate(786,487)"/>
<path d="M0 0 C0 0.66 0 1.32 0 2 C-1.98 2.33 -3.96 2.66 -6 3 C-6 3.66 -6 4.32 -6 5 C-9.96 5 -13.92 5 -18 5 C-18 4.67 -18 4.34 -18 4 C-15.36 4 -12.72 4 -10 4 C-10 3.34 -10 2.68 -10 2 C-6.49223216 0.39644899 -3.85645121 -0.22036864 0 0 Z " fill="#C1D9F9" transform="translate(813,518)"/>
<path d="M0 0 C0.99 0 1.98 0 3 0 C3.33 5.28 3.66 10.56 4 16 C3.67 15.34 3.34 14.68 3 14 C2.34 14 1.68 14 1 14 C0.67 9.38 0.34 4.76 0 0 Z " fill="#6EC0FB" transform="translate(792,410)"/>
<path d="M0 0 C0.33 0 0.66 0 1 0 C1.30372936 8.00945568 1.50848663 14.69065285 -2 22 C-2.33 22 -2.66 22 -3 22 C-2.85957123 20.35369672 -2.71250671 18.70795821 -2.5625 17.0625 C-2.48128906 16.14597656 -2.40007813 15.22945313 -2.31640625 14.28515625 C-2 12 -2 12 -1 11 C-0.76636119 9.15108054 -0.58696365 7.29511969 -0.4375 5.4375 C-0.35371094 4.42558594 -0.26992188 3.41367187 -0.18359375 2.37109375 C-0.12300781 1.58863281 -0.06242188 0.80617188 0 0 Z " fill="#70A7F7" transform="translate(863,416)"/>
<path d="M0 0 C3.59905908 0.55550695 4.99909799 1.74887248 7.25 4.5625 C8.03117188 5.52349609 8.03117188 5.52349609 8.828125 6.50390625 C9.21484375 6.99761719 9.6015625 7.49132812 10 8 C8.35 8.33 6.7 8.66 5 9 C4.34 7.02 3.68 5.04 3 3 C2.34 3 1.68 3 1 3 C0.67 2.01 0.34 1.02 0 0 Z " fill="#47B0F8" transform="translate(766,488)"/>
<path d="M0 0 C1.32 0.33 2.64 0.66 4 1 C1.36 4.3 -1.28 7.6 -4 11 C-5 8 -5 8 -3.6875 4.9375 C-2 2 -2 2 0 0 Z " fill="#509BF8" transform="translate(788,507)"/>
<path d="M0 0 C0.66 0.33 1.32 0.66 2 1 C1.50628906 1.61488281 1.01257813 2.22976563 0.50390625 2.86328125 C-0.45708984 4.07564453 -0.45708984 4.07564453 -1.4375 5.3125 C-2.07558594 6.11300781 -2.71367188 6.91351563 -3.37109375 7.73828125 C-5.16111355 9.98697277 -5.16111355 9.98697277 -6 13 C-7.32 12.67 -8.64 12.34 -10 12 C-9.61328125 11.55269531 -9.2265625 11.10539062 -8.828125 10.64453125 C-5.81609925 7.1478974 -2.85678969 3.62592537 0 0 Z " fill="#20BAFB" transform="translate(847,342)"/>
<path d="M0 0 C1.32 0 2.64 0 4 0 C4 0.99 4 1.98 4 3 C4.99 3 5.98 3 7 3 C7 3.66 7 4.32 7 5 C9.31 5.33 11.62 5.66 14 6 C14 6.33 14 6.66 14 7 C6.01007787 7.7833257 6.01007787 7.7833257 1.9375 4.625 C0 2 0 2 0 0 Z " fill="#E6EFFC" transform="translate(815,514)"/>
<path d="M0 0 C3.16115776 1.36983503 3.9927092 1.9890638 6 5 C5.21625 4.95875 4.4325 4.9175 3.625 4.875 C0.83883881 4.71271266 0.83883881 4.71271266 -1 7 C-1.99 7 -2.98 7 -4 7 C-4 5 -4 5 -2.5625 3.5 C-2.046875 3.005 -1.53125 2.51 -1 2 C-0.67 1.34 -0.34 0.68 0 0 Z " fill="#5DB8F5" transform="translate(802,466)"/>
<path d="M0 0 C0.66 0.33 1.32 0.66 2 1 C1.401875 1.721875 0.80375 2.44375 0.1875 3.1875 C-2.03616504 5.89077575 -2.03616504 5.89077575 -3.5 8.75 C-5 11 -5 11 -7.1875 11.8125 C-7.785625 11.874375 -8.38375 11.93625 -9 12 C-8.34 10.68 -7.68 9.36 -7 8 C-6.34 8 -5.68 8 -5 8 C-4.731875 7.4225 -4.46375 6.845 -4.1875 6.25 C-2.98280141 3.9674132 -1.59201885 2.0262058 0 0 Z " fill="#2FBBFB" transform="translate(823,372)"/>
<path d="M0 0 C0.66 0 1.32 0 2 0 C5.42724441 5.14086661 5.1015597 10.00797796 5 16 C2.86413322 12.79619983 2.76867825 11.98060033 2.875 8.3125 C2.89304687 7.50425781 2.91109375 6.69601562 2.9296875 5.86328125 C2.96449219 4.94095703 2.96449219 4.94095703 3 4 C2.01 4 1.02 4 0 4 C0 2.68 0 1.36 0 0 Z " fill="#C7DAF7" transform="translate(810,523)"/>
<path d="M0 0 C2.33333333 2.33333333 4.66666667 4.66666667 7 7 C6.625 10.125 6.625 10.125 6 13 C5.67 13 5.34 13 5 13 C5 11.35 5 9.7 5 8 C4.01 8 3.02 8 2 8 C1.34 5.36 0.68 2.72 0 0 Z " fill="#5D99F7" transform="translate(743,475)"/>
<path d="M0 0 C0.99 0 1.98 0 3 0 C1.5140084 4.59306496 -0.85014682 7.43569245 -4 11 C-4.625 9.1875 -4.625 9.1875 -5 7 C-4.34 6.01 -3.68 5.02 -3 4 C-2.01 4 -1.02 4 0 4 C0 2.68 0 1.36 0 0 Z " fill="#3EBCFB" transform="translate(851,367)"/>
<path d="M0 0 C2.75 0.125 2.75 0.125 6 1 C8.4375 3.875 8.4375 3.875 10 7 C9.67 7.99 9.34 8.98 9 10 C8.60167969 9.52949219 8.20335937 9.05898438 7.79296875 8.57421875 C7.26316406 7.95160156 6.73335937 7.32898438 6.1875 6.6875 C5.66542969 6.07261719 5.14335938 5.45773437 4.60546875 4.82421875 C3.12827531 3.14575321 1.59960869 1.56117966 0 0 Z " fill="#3AA9FB" transform="translate(726,410)"/>
<path d="M0 0 C0.99 0 1.98 0 3 0 C2.67 1.65 2.34 3.3 2 5 C0.68 5 -0.64 5 -2 5 C-2.33 5.99 -2.66 6.98 -3 8 C-2.67 6.02 -2.34 4.04 -2 2 C-1.34 2 -0.68 2 0 2 C0 1.34 0 0.68 0 0 Z " fill="#D6E3F9" transform="translate(818,523)"/>
<path d="M0 0 C2.66666667 2.66666667 5.33333333 5.33333333 8 8 C7.67 8.66 7.34 9.32 7 10 C5.125 9.875 5.125 9.875 3 9 C1.8125 6.125 1.8125 6.125 1 3 C0.67 2.01 0.34 1.02 0 0 Z " fill="#56B5F9" transform="translate(750,404)"/>
<path d="M0 0 C1.65 1.65 3.3 3.3 5 5 C0.74938644 6.41687119 -1.71851625 5.19320039 -6 4 C-6 3.67 -6 3.34 -6 3 C-4.02 3 -2.04 3 0 3 C0 2.01 0 1.02 0 0 Z " fill="#4AC1FA" transform="translate(729,377)"/>
<path d="M0 0 C0.75 1.75 0.75 1.75 1 4 C-0.8125 6.25 -0.8125 6.25 -3 8 C-3.66 8 -4.32 8 -5 8 C-5.33 6.68 -5.66 5.36 -6 4 C-4.02 3.67 -2.04 3.34 0 3 C0 2.01 0 1.02 0 0 Z " fill="#6184ED" transform="translate(832,471)"/>
<path d="M0 0 C0.66 1.32 1.32 2.64 2 4 C0.35 5.98 -1.3 7.96 -3 10 C-3.6875 8.1875 -3.6875 8.1875 -4 6 C-2.625 4.4375 -2.625 4.4375 -1 3 C-0.67 2.01 -0.34 1.02 0 0 Z " fill="#5EA4F9" transform="translate(799,433)"/>
<path d="M0 0 C0.33 0.66 0.66 1.32 1 2 C1.66 2 2.32 2 3 2 C4.35439668 4.70879335 4.06501451 7.00933268 4 10 C3.01 10.495 3.01 10.495 2 11 C0 3.375 0 3.375 0 0 Z " fill="#3C9AFC" transform="translate(841,416)"/>
<path d="M0 0 C0.33 0.99 0.66 1.98 1 3 C0.01 3.33 -0.98 3.66 -2 4 C-2.309375 4.639375 -2.61875 5.27875 -2.9375 5.9375 C-4.2342338 8.45468915 -5.4221737 8.96886948 -8 10 C-6.76044505 6.28133515 -4.81445146 4.67716114 -2 2 C-1.34 1.34 -0.68 0.68 0 0 Z " fill="#41B3FB" transform="translate(792,412)"/>
<path d="M0 0 C0.66 0.33 1.32 0.66 2 1 C1.26418258 2.1549921 0.51069961 3.29874185 -0.25 4.4375 C-0.66765625 5.07558594 -1.0853125 5.71367187 -1.515625 6.37109375 C-3.27248877 8.29902057 -4.46089803 8.61479436 -7 9 C-5.44499019 5.18315774 -2.96404505 2.80804268 0 0 Z " fill="#23BAFB" transform="translate(836,356)"/>
<path d="M0 0 C1.98 0 3.96 0 6 0 C6 0.66 6 1.32 6 2 C5.34 2 4.68 2 4 2 C3.67 3.98 3.34 5.96 3 8 C2.67 8 2.34 8 2 8 C1.34 5.36 0.68 2.72 0 0 Z " fill="#84B8F5" transform="translate(812,523)"/>
<path d="M0 0 C0.33 0 0.66 0 1 0 C0.39174965 4.34464536 -0.26167392 8.67551867 -1 13 C-1.33 13 -1.66 13 -2 13 C-3.19876651 7.55106131 -2.91360308 4.77830905 0 0 Z " fill="#52AFFB" transform="translate(824,402)"/>
<path d="M0 0 C1.875 0.3125 1.875 0.3125 4 1 C4.66 1.99 5.32 2.98 6 4 C3.69 4.33 1.38 4.66 -1 5 C-0.67 3.35 -0.34 1.7 0 0 Z " fill="#3EB9FD" transform="translate(842,391)"/>
<path d="M0 0 C0.68359375 1.765625 0.68359375 1.765625 1 4 C-0.21484375 5.921875 -0.21484375 5.921875 -1.9375 7.75 C-2.50339844 8.36359375 -3.06929687 8.9771875 -3.65234375 9.609375 C-4.31943359 10.29773438 -4.31943359 10.29773438 -5 11 C-5.66 10.67 -6.32 10.34 -7 10 C-6.401875 9.278125 -5.80375 8.55625 -5.1875 7.8125 C-3.22577804 5.29028605 -1.58276017 2.7698303 0 0 Z " fill="#4ABBFA" transform="translate(887,373)"/>
<path d="M0 0 C0.99 0.33 1.98 0.66 3 1 C2.19152271 2.16945792 1.37810888 3.33550461 0.5625 4.5 C0.11003906 5.1496875 -0.34242188 5.799375 -0.80859375 6.46875 C-1.20175781 6.9740625 -1.59492187 7.479375 -2 8 C-2.33 8 -2.66 8 -3 8 C-3 6.35 -3 4.7 -3 3 C-2.34 3 -1.68 3 -1 3 C-0.67 2.01 -0.34 1.02 0 0 Z " fill="#6792F5" transform="translate(851,447)"/>
<path d="M0 0 C2.97 0.99 5.94 1.98 9 3 C8.01 3.33 7.02 3.66 6 4 C5.34 3.67 4.68 3.34 4 3 C3.67 3.66 3.34 4.32 3 5 C1.5 3.625 1.5 3.625 0 2 C0 1.34 0 0.68 0 0 Z " fill="#459BF5" transform="translate(694,448)"/>
<path d="M0 0 C0.66 0.33 1.32 0.66 2 1 C-0.84936103 4.00765886 -3.23511958 6.27845212 -7 8 C-6.02133662 6.85373678 -5.04205413 5.70800212 -4.0625 4.5625 C-3.51722656 3.92441406 -2.97195313 3.28632813 -2.41015625 2.62890625 C-1.63204305 1.73008851 -0.84063472 0.84063472 0 0 Z " fill="#1DBDFB" transform="translate(652,336)"/>
<path d="M0 0 C1 3 1 3 -0.4375 6.1875 C-1.2109375 7.5796875 -1.2109375 7.5796875 -2 9 C-2.66 9 -3.32 9 -4 9 C-2.94124926 5.59687262 -1.99097846 2.98646769 0 0 Z " fill="#3DB5FA" transform="translate(786,487)"/>
<path d="M0 0 C0.99 0.33 1.98 0.66 3 1 C1.8125 2.5 1.8125 2.5 0 4 C-2.6875 4.1875 -2.6875 4.1875 -5 4 C-3.36587557 2.29159719 -2.13093906 1.06546953 0 0 Z " fill="#28B7FA" transform="translate(705,391)"/>
<path d="M0 0 C0.66 0.33 1.32 0.66 2 1 C0.8125 3 0.8125 3 -1 5 C-3.6875 5.25 -3.6875 5.25 -6 5 C-2.25 1.125 -2.25 1.125 0 0 Z " fill="#23BBFB" transform="translate(857,334)"/>
<path d="M0 0 C4.875 4.75 4.875 4.75 6 7 C4.125 6.875 4.125 6.875 2 6 C0.75 2.9375 0.75 2.9375 0 0 Z " fill="#52ACF9" transform="translate(759,415)"/>
<path d="M0 0 C1 2 1 2 0.44140625 4.1640625 C0.15136719 4.97617187 -0.13867188 5.78828125 -0.4375 6.625 C-0.72496094 7.44226563 -1.01242187 8.25953125 -1.30859375 9.1015625 C-1.53675781 9.72804688 -1.76492188 10.35453125 -2 11 C-2.33 11 -2.66 11 -3 11 C-3.36923077 4.6 -3.36923077 4.6 -1.5 1.5625 C-1.005 1.046875 -0.51 0.53125 0 0 Z " fill="#4EBCFB" transform="translate(808,391)"/>
<path d="M0 0 C3.63 0.33 7.26 0.66 11 1 C11 1.33 11 1.66 11 2 C6.545 2.495 6.545 2.495 2 3 C1.34 2.01 0.68 1.02 0 0 Z " fill="#35BAF9" transform="translate(704,379)"/>
</svg>
